HIERARCHY
ROOT hip
{
  OFFSET 0 0 0
  CHANNELS 6 Xposition Yposition Zposition Zrotation Yrotation Xrotation
  JOINT abdomen
  {
    OFFSET 0 20.6881 -0.73152
    CHANNELS 3 Zrotation Xrotation Yrotation
    JOINT chest
    {
      OFFSET 0 11.7043 -0.48768
      CHANNELS 3 Zrotation Xrotation Yrotation
      JOINT neck
      {
        OFFSET 0 22.1894 -2.19456
        CHANNELS 3 Zrotation Xrotation Yrotation
        JOINT head
        {
          OFFSET -0.24384 7.07133 1.2192
          CHANNELS 3 Zrotation Xrotation Yrotation
          JOINT leftEye
          {
            OFFSET 4.14528 8.04674 8.04672
            CHANNELS 3 Zrotation Xrotation Yrotation
            End Site
            {
              OFFSET 1 0 0
            }
          }
          JOINT rightEye
          {
            OFFSET -3.6576 8.04674 8.04672
            CHANNELS 3 Zrotation Xrotation Yrotation
            End Site
            {
              OFFSET 1 0 0
            }
          }
        }
      }
      JOINT rCollar
      {
        OFFSET -2.68224 19.2634 -4.8768
        CHANNELS 3 Zrotation Xrotation Yrotation
        JOINT rShldr
        {
          OFFSET -8.77824 -1.95073 1.46304
          CHANNELS 3 Zrotation Xrotation Yrotation
          JOINT rForeArm
          {
            OFFSET -28.1742 -1.7115 0.48768
            CHANNELS 3 Zrotation Xrotation Yrotation
            JOINT rHand
            {
              OFFSET -22.5879 0.773209 7.07136
              CHANNELS 3 Zrotation Xrotation Yrotation
              JOINT rThumb1
              {
                OFFSET -1.2192 -0.487915 3.41376
                CHANNELS 3 Zrotation Xrotation Yrotation
                JOINT rThumb2
                {
                  OFFSET -3.37035 -0.52449 3.41376
                  CHANNELS 3 Zrotation Xrotation Yrotation
                  End Site
                  {
                    OFFSET -1.78271 -1.18214 1.43049
                  }
                }
              }
              JOINT rIndex1
              {
                OFFSET -7.75947 0.938293 5.60832
                CHANNELS 3 Zrotation Xrotation Yrotation
                JOINT rIndex2
                {
                  OFFSET -2.54057 -0.884171 1.56538
                  CHANNELS 3 Zrotation Xrotation Yrotation
                  End Site
                  {
                    OFFSET -1.62519 -0.234802 1.16502
                  }
                }
              }
              JOINT rMid1
              {
                OFFSET -8.24714 1.18213 3.41376
                CHANNELS 3 Zrotation Xrotation Yrotation
                JOINT rMid2
                {
                  OFFSET -3.10165 -0.590103 1.0647
                  CHANNELS 3 Zrotation Xrotation Yrotation
                  End Site
                  {
                    OFFSET -2.48547 -0.328903 0.83742
                  }
                }
              }
              JOINT rRing1
              {
                OFFSET -8.82822 0.546677 1.51678
                CHANNELS 3 Zrotation Xrotation Yrotation
                JOINT rRing2
                {
                  OFFSET -2.60934 -0.819778 -0.0198488
                  CHANNELS 3 Zrotation Xrotation Yrotation
                  End Site
                  {
                    OFFSET -2.33842 -0.294052 0.168128
                  }
                }
              }
              JOINT rPinky1
              {
                OFFSET -8.27202 -0.0477905 -0.4584
                CHANNELS 3 Zrotation Xrotation Yrotation
                JOINT rPinky2
                {
                  OFFSET -1.82734 -0.647385 -0.700984
                  CHANNELS 3 Zrotation Xrotation Yrotation
                  End Site
                  {
                    OFFSET -1.69225 -0.51767 -0.607171
                  }
                }
              }
            }
          }
        }
      }
      JOINT lCollar
      {
        OFFSET 2.68224 19.2634 -4.8768
        CHANNELS 3 Zrotation Xrotation Yrotation
        JOINT lShldr
        {
          OFFSET 8.77824 -1.95073 1.46304
          CHANNELS 3 Zrotation Xrotation Yrotation
          JOINT lForeArm
          {
            OFFSET 28.1742 -1.7115 0.48768
            CHANNELS 3 Zrotation Xrotation Yrotation
            JOINT lHand
            {
              OFFSET 22.5879 0.773209 7.07136
              CHANNELS 3 Zrotation Xrotation Yrotation
              JOINT lThumb1
              {
                OFFSET 1.2192 -0.487915 3.41376
                CHANNELS 3 Zrotation Xrotation Yrotation
                JOINT lThumb2
                {
                  OFFSET 3.37035 -0.52449 3.41376
                  CHANNELS 3 Zrotation Xrotation Yrotation
                  End Site
                  {
                    OFFSET 1.78271 -1.18214 1.43049
                  }
                }
              }
              JOINT lIndex1
              {
                OFFSET 7.75947 0.938293 5.60832
                CHANNELS 3 Zrotation Xrotation Yrotation
                JOINT lIndex2
                {
                  OFFSET 2.54057 -0.884171 1.56538
                  CHANNELS 3 Zrotation Xrotation Yrotation
                  End Site
                  {
                    OFFSET 1.62519 -0.234802 1.16502
                  }
                }
              }
              JOINT lMid1
              {
                OFFSET 8.24714 1.18213 3.41376
                CHANNELS 3 Zrotation Xrotation Yrotation
                JOINT lMid2
                {
                  OFFSET 3.10165 -0.590103 1.0647
                  CHANNELS 3 Zrotation Xrotation Yrotation
                  End Site
                  {
                    OFFSET 2.48547 -0.328903 0.83742
                  }
                }
              }
              JOINT lRing1
              {
                OFFSET 8.82822 0.546677 1.51678
                CHANNELS 3 Zrotation Xrotation Yrotation
                JOINT lRing2
                {
                  OFFSET 2.60934 -0.819778 -0.0198488
                  CHANNELS 3 Zrotation Xrotation Yrotation
                  End Site
                  {
                    OFFSET 2.33842 -0.294052 0.168128
                  }
                }
              }
              JOINT lPinky1
              {
                OFFSET 8.27202 -0.0477905 -0.4584
                CHANNELS 3 Zrotation Xrotation Yrotation
                JOINT lPinky2
                {
                  OFFSET 1.82734 -0.647385 -0.700984
                  CHANNELS 3 Zrotation Xrotation Yrotation
                  End Site
                  {
                    OFFSET 1.69225 -0.51767 -0.607171
                  }
                }
              }
            }
          }
        }
      }
    }
  }
  JOINT rButtock
  {
    OFFSET -8.77824 4.35084 1.2192
    CHANNELS 3 Zrotation Xrotation Yrotation
    JOINT rThigh
    {
      OFFSET 0 -1.70687 -2.19456
      CHANNELS 3 Zrotation Xrotation Yrotation
      JOINT rShin
      {
        OFFSET 0 -36.8199 0.73152
        CHANNELS 3 Zrotation Xrotation Yrotation
        JOINT rFoot
        {
          OFFSET 0.73152 -45.1104 -5.12064
          CHANNELS 3 Zrotation Xrotation Yrotation
          End Site
          {
            OFFSET -1.1221 -3.69964 12.103
          }
        }
      }
    }
  }
  JOINT lButtock
  {
    OFFSET 8.77824 4.35084 1.2192
    CHANNELS 3 Zrotation Xrotation Yrotation
    JOINT lThigh
    {
      OFFSET 0 -1.70687 -2.19456
      CHANNELS 3 Zrotation Xrotation Yrotation
      JOINT lShin
      {
        OFFSET 0 -36.8199 0.73152
        CHANNELS 3 Zrotation Xrotation Yrotation
        JOINT lFoot
        {
          OFFSET -0.73152 -45.1104 -5.12064
          CHANNELS 3 Zrotation Xrotation Yrotation
          End Site
          {
            OFFSET 1.1221 -3.69964 12.103
          }
        }
      }
    }
  }
}
MOTION
Frames:	4
Frame Time:	0.03333
0.0 0.0 0.0 0.0 0.0 0.0 0.0 0.0 0.0 0.0 0.0 0.0 0.0 0.0 0.0 0.0 0.0 0.0 0.0 0.0 0.0 0.0 0.0 0.0 0.0 0.0 0.0 0.0 0.0 0.0 0.0 0.0 0.0 0.0 0.0 0.0 0.0 0.0 0.0 0.0 0.0 0.0 0.0 0.0 0.0 0.0 0.0 0.0 0.0 0.0 0.0 0.0 0.0 0.0 0.0 0.0 0.0 0.0 0.0 0.0 0.0 0.0 0.0 0.0 0.0 0.0 0.0 0.0 0.0 0.0 0.0 0.0 0.0 0.0 0.0 0.0 0.0 0.0 0.0 0.0 0.0 0.0 0.0 0.0 0.0 0.0 0.0 0.0 0.0 0.0 0.0 0.0 0.0 0.0 0.0 0.0 0.0 0.0 0.0 0.0 0.0 0.0 0.0 0.0 0.0 0.0 0.0 0.0 0.0 0.0 0.0 0.0 0.0 0.0 0.0 0.0 0.0 0.0 0.0 0.0 0.0 0.0 0.0 0.0 0.0 0.0 0.0 0.0 0.0 0.0 0.0 0.0
-0.6577000000000001 26.376500000000004 0.9236 -1.927503 -36.48305 -0.072744 -1.275631 -8.412327 -130.42182 -12.390395 -16.939235 -177.262466 -45.959854 -66.080396 -89.889672 -154.279733 50.377936 -93.21951 -120.888561 21.226371 36.5721 -16.170825 8.86278 -57.226476 136.896996 -66.898753 -163.048523 44.17608 -50.816958 -138.222967 -169.997541 -85.278551 6.076412 -48.752699 45.65428 -156.65349 -24.216385 78.489427 -162.824836 174.44172 -79.970212 -37.703144 23.718365 -30.204657 170.470779 69.518539 71.076111 -172.793018 -21.822867 47.369643 -11.663277 -164.296279 -52.810945 22.933993 -129.774051 -4.836347 -170.396735 155.775878 -46.621 27.931747 164.206769 34.7862 52.563378 153.047748 -29.099738 117.816726 161.816904 22.606947 8.425753 -81.039861 -26.609047 164.888935 -60.736853 49.926148 52.2051 -128.284684 28.049592 93.334644 -159.38126 -47.749344 -16.878183 -76.355388 -48.462459 -175.457636 -157.094064 1.999589 164.368283 161.752151 60.350912 -35.26532 -53.100749 -50.517859 41.383105 104.543535 33.618049 -11.282904 152.929323 68.498737 17.231531 52.358761 -35.533423 160.034222 135.435637 13.408192 39.041732 80.66588 -47.324735 -10.163727 -16.247192 -71.50174 -10.965356 47.667162 69.589891 2.863398 -6.339558 21.315744 125.830287 -110.428435 -6.708518 108.630916 -17.325976 36.445366 96.981579 -33.556954 -11.679431 -95.862965 6.944681 -7.508321 -84.899781 1.501231 -40.710845 80.062993
-0.7976000000000001 43.956 0.6041000000000001 -166.648583 81.451832 -165.911847 4.098565 7.269708 -171.175606 2.24401 -1.481408 164.313928 -3.247422 -6.387416 104.879252 -17.423749 -0.401322 -118.412411 -33.492804 -6.12444 20.162639 11.351611 -4.022127 -38.917392 -37.119775 66.910699 25.34224 79.675421 -0.36824 81.053426 174.36839 5.320566 54.702148 154.970642 25.674318 59.290049 -161.787806 -8.038819 35.178838 41.48874 22.459941 48.911281 29.27316 13.354623 94.290211 -8.499858 33.526482 -110.620605 -174.377812 -37.516225 108.266867 150.354158 80.82533 27.653722 90.665736 -40.060766 98.076099 -48.153766 47.252729 46.220235 69.471473 16.298956 149.708407 22.148169 80.777633 -76.495627 5.817621 -20.473929 21.50865 86.846715 -28.482511 170.775156 -12.134546 1.171554 84.37459 -167.022813 30.269402 -145.87399 -126.762004 5.983438 -112.181747 -173.205524 42.854442 -24.272584 18.7528 -54.347733 113.640495 175.864476 78.49768 -41.938475 72.986089 66.301186 47.16535 -179.621301 -26.591859 -6.892299 -138.535268 -0.100911 -171.883971 77.10908 42.505252 -64.799825 -115.036786 67.728564 123.189718 52.221908 49.058898 12.851881 54.988805 -28.707205 50.325427 -42.3291 45.518755 -39.404781 -9.140987 23.938691 -51.174913 -26.534568 -12.657284 63.564545 67.071683 0.151264 81.805792 -38.862956 49.405157 146.030206 7.081606 -33.724265 30.579377 13.859056 -4.01994 177.459364
-0.8181 57.3823 0.0409 -151.404385 81.363215 -149.376396 1.723362 11.911918 87.14539 -4.717615 2.285052 -71.54188 19.762079 5.759791 97.082423 -26.016993 21.933367 -110.629937 -16.674984 1.875932 -12.748687 2.690643 -0.357776 -15.145727 11.126931 49.555599 -0.906779 -110.413426 19.175826 131.543209 -96.513719 2.833977 -104.622485 74.855535 -67.532089 18.16956 -33.622112 31.469287 39.844847 -147.404592 79.687487 130.740969 -179.103561 -54.93599 80.825246 17.677355 -54.674657 64.034221 -40.892382 43.680756 78.26626 165.595761 -0.194883 -113.560487 92.577969 -55.079197 92.045936 156.045808 -24.947004 172.068201 118.632614 -19.934184 172.248703 99.117171 57.520429 -125.941342 47.561748 57.860518 -41.480003 -61.332678 -5.769039 -75.858862 40.968755 -0.151541 -43.781387 -17.002831 -28.435821 -9.005345 85.954349 77.029132 -12.331269 -62.412725 -43.581798 -95.804772 -167.42419 -8.020494 -16.457644 -171.114366 -36.416487 67.814185 -128.162397 35.622761 156.102619 -123.764256 -21.654583 165.871865 -151.331011 38.31062 152.122135 -168.48521 -75.360978 174.882634 -160.463726 47.285221 87.540159 101.581644 19.252413 46.230618 -11.347083 4.508823 -88.03924 20.951376 2.309367 98.039427 29.627857 34.849329 89.810054 -3.630634 11.512874 -132.369185 56.052297 -11.207965 77.693599 -31.91158 27.634839 84.795559 52.561419 -22.562268 77.258815 57.785388 23.738178 -172.779748
